<svg width="381.3479919433594" height="136.71399688720703" xmlns="http://www.w3.org/2000/svg">

 <g>
  <title>background</title>
  <rect fill="none" id="canvas_background" height="402" width="582" y="-1" x="-1"/>
 </g>
 <g>
  <title>Layer 1</title>
  <g fill="#4fc08d" transform="translate(137.39659118652344,0) scale(1.994673490524292) " id="SvgjsG1032">
   <g id="46bfeca5-5fe1-46b7-b39f-b07f8c93ed2d">
    <g id="19289a54-b124-48e4-a4f1-c06206842ce4">
     <path id="svg_2" d="m30.409996,42.880002a41.74,41.74 0 0 1 -13.71,4.27a15.92,15.92 0 0 1 -9.3,-1.56a12.77,12.77 0 0 1 -5.39,-5.84a22.19,22.19 0 0 1 -2,-8.58a37,37 0 0 1 0.94,-9.78a41.53,41.53 0 0 1 3.36,-9.43a29.35,29.35 0 0 1 5.29,-7.53a14.94,14.94 0 0 1 6.71,-4.1a12.74,12.74 0 0 1 3.5,-0.31a28.86,28.86 0 0 1 4.3,0.5c1.53,0.28 3.14,0.67 4.78,1.15s3.3,1 4.94,1.63s3.24,1.27 4.77,2s3,1.4 4.28,2.12a37.53,37.53 0 0 1 3.46,2.11a14.17,14.17 0 0 1 2.33,2a21.77,21.77 0 0 1 3.33,4.65a12.45,12.45 0 0 1 1.37,4.39a10.33,10.33 0 0 1 -0.41,4.16a13.77,13.77 0 0 1 -2,3.95a23.78,23.78 0 0 1 -3.44,3.77a43,43 0 0 1 -4.69,3.62c-1.75,1.19 -3.68,2.35 -5.76,3.5s-4.31,2.18 -6.66,3.31z"/>
    </g>
   </g>
  </g>
  <g stroke="null" transform="rotate(0.5756942629814148 190.67401123046955,47.76316833495951) " fill="#36495d" id="SvgjsG1033">
   <path transform="rotate(-92.14459228515625 190.67401123046875,47.76316070556642) " stroke="null" id="svg_3" d="m186.337637,69.285992q-0.427,0 -0.488,-0.122q-0.793,-1.342 -1.586,-2.806q-0.061,-1.403 -0.6405,-2.5925t-1.2505,-2.4095q-0.427,-0.854 -0.427,-1.525q0.061,-0.732 -0.3965,-1.2505t-0.6405,-1.1895t-0.183,-1.342t-0.488,-1.281q-0.488,-0.488 -0.427,-0.915q0.061,-0.915 -0.366,-1.6165t-0.732,-1.4335q-0.244,-0.61 -0.244,-1.3115t-0.488,-1.2505q-0.488,-0.61 -0.427,-1.3115t-0.244,-1.3115t-0.6405,-1.159t-0.3355,-1.342q0.061,-0.244 -0.0305,-0.488t-0.2135,-0.549q-0.122,-0.366 -0.3355,-0.7015t-0.3355,-0.7625q-0.122,-0.366 -0.1525,-0.7625t-0.0305,-0.7625q-0.305,-0.427 -0.5185,-0.7625t-0.4575,-0.7015q-0.061,-0.427 -0.061,-0.8235t-0.061,-0.8235q-0.366,-0.793 -0.915,-1.5555t-0.061,-1.7385q-0.366,-0.488 -0.61,-0.8845t-0.549,-0.8845q0,-0.305 -0.0305,-0.7015t0.0915,-0.7625q0.122,-0.915 1.037,-1.037q0.244,0 0.4575,-0.183t0.3965,-0.305q-0.244,-0.305 -0.549,-0.3965t-0.6405,-0.0915t-0.7015,-0.0305t-0.671,-0.2135q-0.61,-0.488 -0.549,-1.159l0.122,-1.342q0.244,-0.122 0.4575,-0.3355t0.4575,-0.2135q1.22,-0.061 2.44,-0.0305t2.379,0.0305q0.244,0.305 0.4575,0.488t0.2745,0.427q0.122,0.671 0.488,0.915t1.037,0.305q0.305,0 0.549,0.0305t0.549,0.0305q0.244,0.305 0.366,0.5185t0.183,0.427t0.122,0.5795t0.122,0.976q0.366,0.549 0.976,1.525q0.061,0.549 0.061,1.22t0.061,1.403q0.671,1.403 1.4335,2.806t0.8235,3.05q0.427,0.61 0.7625,1.159t0.2135,1.342q-0.061,0.61 0.305,1.037t0.549,0.915t0.2135,1.037t0.1525,1.098q0.244,0.366 0.4575,0.7015t0.3965,0.7015q0,0.61 -0.1525,1.0065t-0.8845,0.5185q-0.244,0.061 -0.3965,0.244t-0.3965,0.305q0.854,0.427 1.3115,0.671t0.7625,0.5185t0.488,0.6405l0.488,0.976q0.305,0.488 0.5185,0.9455t0.5185,0.9455q0.244,1.037 0.122,2.1655t0.366,2.1655q0.793,-0.976 1.1895,-1.7995t0.5795,-1.7385q0.061,-0.305 0.0915,-0.549t0.1525,-0.549q0.122,-0.366 0.366,-0.7015t0.427,-0.7015q0.061,-0.671 0.0915,-1.342t0.0915,-1.281q0.305,-0.549 0.61,-1.0675t0.305,-1.0065q0.122,-0.854 0.488,-1.5555t0.61,-1.4945q0.183,-0.793 0.3355,-1.5555t0.6405,-1.4945q0.183,-0.244 0.244,-0.5795t0.061,-0.7015t0.061,-0.671t0.305,-0.61q0.488,-0.61 0.549,-1.281t0.183,-1.342q0.122,-0.366 0.3965,-0.732t0.5795,-0.915q0,-0.488 0.0305,-1.1285t0.0915,-1.4335q0.488,-0.915 0.9455,-1.891t1.1285,-2.196q0,-0.549 0.061,-1.281t0.122,-1.586q0.244,-0.122 0.4575,-0.3355t0.4575,-0.2135q2.074,-0.061 4.1175,-0.061l4.0565,0q0.793,0.549 0.671,1.22t-0.061,1.281l-0.915,0.732q-0.915,0 -1.8605,0.0305t-1.9215,0.0915q-0.122,0 -0.427,0.305q0.122,0.183 0.305,0.3355t0.305,0.3355l2.684,0q0.427,0.305 0.6405,0.6405t0.0915,0.7015q-0.488,1.037 -1.0065,1.9825t-1.0675,1.9825q0,0.61 -0.0305,1.281t-0.0915,1.342q-0.305,0.61 -0.7015,1.159t-0.3355,1.281q0.122,0.793 -0.3355,1.3115t-0.6405,1.1895q-0.122,0.671 -0.5185,1.22t-0.7015,1.22l0,2.867q0,0.061 -0.427,0.3965t-0.549,0.8235q-0.244,0.976 -0.915,1.952q-0.061,0.122 -0.1525,0.244t-0.0915,0.244q0.183,0.61 0,1.098t-0.4575,0.976t-0.5185,0.976t-0.183,1.037q0.061,0.793 -0.366,1.3115t-0.732,1.1895l0,1.525q-0.305,0.671 -0.7625,1.1895t-0.3355,1.3115q0.122,0.671 -0.183,1.037q-1.098,1.342 -0.976,3.05q-1.037,1.525 -1.22,3.599q-0.488,0.671 -0.8235,1.342t-0.3965,1.464l-6.954,0q-0.305,0 -0.549,-0.061t-0.549,-0.183q-0.488,-0.366 -0.4575,-0.915t-0.0915,-1.037l1.525,0q0.671,-0.61 1.3725,-0.8845t1.3725,-0.6405l-0.915,-1.83q0.183,-0.122 0.3965,-0.183t0.3965,-0.183q0.061,0 0.061,-0.122t-0.061,-0.183q-0.244,-0.244 -0.366,-0.061t-0.366,0.854l-1.525,0q-0.61,0.671 -0.8235,1.464t-0.8845,1.342q-0.061,0.061 -0.0305,0.2135t-0.0305,0.2745zm-8.906,-40.138q-0.549,-0.793 -1.342,-0.61q-0.671,0.183 -0.427,0.61q0.122,0.427 0.366,0.305q0.366,-0.061 0.7015,-0.122t0.7015,-0.183zm9.089,34.038q0.244,0.122 0.427,0.244t0.427,0.244q0.305,0.122 0.549,0t0.305,-0.427q0,-0.244 -0.244,-0.3965t-0.549,-0.0915q-0.244,0.061 -0.4575,0.183t-0.4575,0.244zm15.616,-20.069q-0.183,0.183 -0.183,0.305q0.122,0.305 0.305,0.305q0.305,0 0.305,-0.305q0.122,-0.488 -0.427,-0.305zm-24.827,-4.148q-0.122,-0.122 -0.183,-0.244t-0.122,-0.122q-0.854,0.305 -0.061,0.671q0.061,0.061 0.1525,-0.061t0.2135,-0.244zm27.267,-6.283q0.244,-0.244 0.366,-0.305q-0.122,-0.122 -0.183,-0.2135t-0.183,-0.1525q-0.488,0 -0.305,0.488q0.061,0.061 0.305,0.183z"/>
  </g>
  <line stroke-linecap="null" stroke-linejoin="null" id="svg_29" y2="62.589925" x2="168.974813" y1="38.489206" x1="168.615101" fill-opacity="null" stroke-opacity="null" stroke-width="3" stroke="#36495d" fill="none"/>
  <line stroke-linecap="null" stroke-linejoin="null" id="svg_35" y2="41.456832" x2="168.705029" y1="37.050357" x1="168.255389" fill-opacity="null" stroke-opacity="null" stroke-width="3" stroke="#36495d" fill="none"/>
  <path id="svg_36" d="m166.72661,29.40647c0,0 -0.71942,3.68705 -0.71942,3.68705c0,0 0.62949,2.2482 0.71942,2.33813c0.08993,0.08993 -0.71942,3.41727 -0.71942,3.41727c0,0 1.07913,2.78777 1.07913,2.78777c0,0 -0.89928,3.50719 -0.89928,3.50719c0,0 0.6295,2.06835 0.71943,2.06835c0.08993,0 -0.89928,2.8777 -0.89928,2.8777c0,0 1.25899,1.70863 1.25899,1.70863c0,0 -0.98921,3.05755 -1.07914,3.05755c-0.08992,0 1.16907,2.8777 1.16907,2.8777c0,0 -0.98921,3.77698 -0.98921,3.77698c0,0 1.25899,2.78777 1.25899,2.78777c0,0 -0.89928,2.60791 -0.89928,2.60791c0,0 0.71943,0.71943 0.71943,0.71943c0,0 1.43885,-0.35972 1.43885,-0.35972c0,0 -2.15828,-37.85971 -2.15828,-37.85971z" fill-opacity="null" stroke-opacity="null" stroke-width="3" stroke="#36495d" fill="none"/>
  <polyline stroke-linecap="round" id="svg_40" points="144.69423868974366,40.55755136080874 144.69423868974366,40.55755136080874 " fill-opacity="null" stroke-opacity="0" stroke-width="3" stroke="#36495d" fill="none"/>
  <polyline stroke-linecap="round" id="svg_41" points="156.11510153225294,32.464026511786415 156.11510153225294,32.464026511786415 " fill-opacity="null" stroke-width="0.5" stroke="#4fc08d" fill="none"/>
  <polyline stroke-linecap="round" id="svg_43" points="168.8848851829326,38.39927806773612 168.8848851829326,38.39927806773612 " fill-opacity="null" stroke-width="0.5" stroke="#4fc08d" fill="none"/>
  <path id="svg_46" d="m166.81654,49.10072c0,0 1.70863,-1.34892 1.70863,-1.34892c0,0 0.71943,2.2482 -0.17985,2.60791" fill-opacity="null" stroke-opacity="null" stroke-width="0.5" stroke="#4fc08d" fill="none"/>
  <path id="svg_50" d="m165.2866,29.9363c0,0 -1.69851,3.18471 -1.69851,3.18471c0,0 2.01698,2.86624 2.01698,2.86624c0,0 -1.59235,3.18471 -1.59235,3.18471c0,0 1.4862,2.76009 1.4862,2.76009c0,0 -1.27389,3.18471 -1.27389,3.18471c0,0 0.95541,2.33546 0.95541,2.33546c0,0 -0.95541,2.76008 -0.95541,2.76008c0,0 1.06157,2.33546 1.06157,2.33546c0,0 -1.06157,2.2293 -1.06157,2.2293c0,0 1.27389,3.39702 1.27389,3.39702c0,0 -0.95542,3.50319 -0.95542,3.50319c0,0 1.06157,3.18471 1.06157,3.18471c0,0 0.21232,1.80467 0.21232,1.91083" fill-opacity="null" stroke-opacity="null" stroke-width="3" stroke="#36495d" fill="none"/>
  <path d="m165.817383,65.498924c0,0 -0.137253,-0.075066 -0.212311,0c-0.150131,0.150124 0,0.212311 0,0.318474c0,0.106155 0,0.212311 0,0.318466c0,0.106155 0,0.212318 0,0.318474c0,0.106155 0,0.212311 0.212311,0.212311c0,0 0.106155,0 0.212311,0c0.106171,0 0.212326,0 0.318481,-0.106155c0.106155,-0.106155 0.212311,-0.212311 0.424622,-0.318474l0.106155,-0.212311l0.212326,-0.318474l0.212311,-0.106155" id="svg_52" fill-opacity="null" stroke-opacity="null" stroke-width="3" stroke="#36495d" fill="none"/>
  <text stroke="#36495d" transform="matrix(1.057271131363804,0,0,1,-5.57524411776443,0) " xml:space="preserve" text-anchor="start" font-family="'Palatino Linotype', 'Book Antiqua', Palatino, serif" font-size="38" id="svg_61" y="136.075413" x="4.339908" stroke-opacity="null" stroke-width="0" fill="#4fc08d">EGG VIDEO ADMIN</text>
 </g>
</svg>